<svg width="271" height="16" viewBox="0 0 271 16" fill="none" xmlns="http://www.w3.org/2000/svg">
<path opacity="0.5" d="M6.36 12.12C5.35 12.12 4.42 11.88 3.57 11.4C2.72 10.91 2.04 10.24 1.53 9.39C1.03 8.53 0.78 7.575 0.78 6.525C0.78 5.475 1.03 4.53 1.53 3.69C2.03 2.85 2.705 2.195 3.555 1.725C4.405 1.255 5.335 1.02 6.345 1.02C7.345 1.02 8.26 1.255 9.09 1.725C9.92 2.195 10.575 2.85 11.055 3.69C11.545 4.53 11.79 5.475 11.79 6.525C11.79 7.575 11.55 8.53 11.07 9.39C10.59 10.24 9.935 10.91 9.105 11.4C8.275 11.88 7.36 12.12 6.36 12.12ZM6.345 11.265C7.175 11.265 7.93 11.06 8.61 10.65C9.3 10.24 9.845 9.675 10.245 8.955C10.645 8.225 10.845 7.415 10.845 6.525C10.845 5.635 10.645 4.835 10.245 4.125C9.845 3.415 9.3 2.865 8.61 2.475C7.93 2.075 7.175 1.875 6.345 1.875C5.505 1.875 4.73 2.075 4.02 2.475C3.32 2.865 2.765 3.415 2.355 4.125C1.945 4.835 1.74 5.635 1.74 6.525C1.74 7.415 1.945 8.225 2.355 8.955C2.775 9.675 3.335 10.24 4.035 10.65C4.745 11.06 5.515 11.265 6.345 11.265ZM6.72 9.54C6.07 9.54 5.5 9.41 5.01 9.15C4.53 8.89 4.16 8.535 3.9 8.085C3.64 7.635 3.51 7.125 3.51 6.555C3.51 5.995 3.64 5.49 3.9 5.04C4.17 4.58 4.54 4.22 5.01 3.96C5.49 3.7 6.03 3.57 6.63 3.57C7.35 3.57 7.82 3.635 8.04 3.765V5.16C7.81 4.99 7.375 4.905 6.735 4.905C6.135 4.905 5.7 5.04 5.43 5.31C5.17 5.58 5.04 5.99 5.04 6.54C5.04 7.11 5.175 7.54 5.445 7.83C5.715 8.12 6.145 8.265 6.735 8.265C7.055 8.265 7.345 8.245 7.605 8.205C7.865 8.155 8.04 8.1 8.13 8.04L8.16 9.27C8.07 9.35 7.88 9.415 7.59 9.465C7.31 9.515 7.02 9.54 6.72 9.54ZM21.0151 7.365C21.4851 6.735 21.8751 6.15 22.1851 5.61C22.5051 5.07 22.6651 4.57 22.6651 4.11C22.6651 3.55 22.5151 3.125 22.2151 2.835C21.9251 2.535 21.4851 2.385 20.8951 2.385C20.3551 2.385 19.9201 2.535 19.5901 2.835C19.2601 3.135 18.9851 3.5 18.7651 3.93L17.3701 3.18C17.7201 2.51 18.1801 1.945 18.7501 1.485C19.3201 1.025 20.0501 0.794999 20.9401 0.794999C22.0501 0.794999 22.9001 1.085 23.4901 1.665C24.0801 2.235 24.3751 2.985 24.3751 3.915C24.3751 5.125 23.7751 6.465 22.5751 7.935L20.5351 10.515H24.8101V12H17.3101L21.0151 7.365ZM30.8024 12.225C29.4224 12.225 28.4074 11.695 27.7574 10.635C27.1074 9.575 26.7824 8.195 26.7824 6.495C26.7824 4.745 27.0974 3.36 27.7274 2.34C28.3574 1.31 29.3824 0.794999 30.8024 0.794999C33.4724 0.794999 34.8074 2.695 34.8074 6.495C34.8074 8.225 34.4824 9.615 33.8324 10.665C33.1824 11.705 32.1724 12.225 30.8024 12.225ZM30.8024 10.695C31.6224 10.695 32.1874 10.305 32.4974 9.525C32.8174 8.735 32.9774 7.725 32.9774 6.495C32.9774 5.205 32.8224 4.185 32.5124 3.435C32.2024 2.685 31.6324 2.31 30.8024 2.31C29.9724 2.31 29.3974 2.685 29.0774 3.435C28.7674 4.185 28.6124 5.205 28.6124 6.495C28.6124 9.295 29.3424 10.695 30.8024 10.695ZM40.4243 7.365C40.8943 6.735 41.2843 6.15 41.5943 5.61C41.9143 5.07 42.0743 4.57 42.0743 4.11C42.0743 3.55 41.9243 3.125 41.6243 2.835C41.3343 2.535 40.8943 2.385 40.3043 2.385C39.7643 2.385 39.3293 2.535 38.9993 2.835C38.6693 3.135 38.3943 3.5 38.1743 3.93L36.7793 3.18C37.1293 2.51 37.5893 1.945 38.1593 1.485C38.7293 1.025 39.4593 0.794999 40.3493 0.794999C41.4593 0.794999 42.3093 1.085 42.8993 1.665C43.4893 2.235 43.7843 2.985 43.7843 3.915C43.7843 5.125 43.1843 6.465 41.9843 7.935L39.9443 10.515H44.2193V12H36.7193L40.4243 7.365ZM47.2866 1.14L48.9816 0.659999V12H47.2866V1.14ZM55.7501 0.975H57.4451V10.5H60.6101V12H55.7501V0.975ZM65.3297 12.15C64.6197 12.15 63.9897 11.99 63.4397 11.67C62.8897 11.35 62.4647 10.915 62.1647 10.365C61.8647 9.815 61.7147 9.205 61.7147 8.535C61.7147 7.875 61.8597 7.27 62.1497 6.72C62.4497 6.17 62.8747 5.735 63.4247 5.415C63.9747 5.095 64.6097 4.935 65.3297 4.935C66.0497 4.935 66.6797 5.095 67.2197 5.415C67.7697 5.735 68.1897 6.17 68.4797 6.72C68.7797 7.27 68.9297 7.875 68.9297 8.535C68.9297 9.205 68.7797 9.815 68.4797 10.365C68.1797 10.915 67.7547 11.35 67.2047 11.67C66.6647 11.99 66.0397 12.15 65.3297 12.15ZM65.3747 10.83C65.9547 10.83 66.4097 10.615 66.7397 10.185C67.0797 9.755 67.2497 9.215 67.2497 8.565C67.2497 7.915 67.0697 7.37 66.7097 6.93C66.3497 6.48 65.8747 6.255 65.2847 6.255C64.7147 6.255 64.2547 6.475 63.9047 6.915C63.5647 7.355 63.3947 7.905 63.3947 8.565C63.3947 9.205 63.5797 9.745 63.9497 10.185C64.3197 10.615 64.7947 10.83 65.3747 10.83ZM73.8697 12.15C73.1597 12.15 72.5297 11.99 71.9797 11.67C71.4297 11.35 71.0047 10.915 70.7047 10.365C70.4047 9.815 70.2547 9.205 70.2547 8.535C70.2547 7.875 70.3997 7.27 70.6897 6.72C70.9897 6.17 71.4147 5.735 71.9647 5.415C72.5147 5.095 73.1497 4.935 73.8697 4.935C74.5897 4.935 75.2197 5.095 75.7597 5.415C76.3097 5.735 76.7297 6.17 77.0197 6.72C77.3197 7.27 77.4697 7.875 77.4697 8.535C77.4697 9.205 77.3197 9.815 77.0197 10.365C76.7197 10.915 76.2947 11.35 75.7447 11.67C75.2047 11.99 74.5797 12.15 73.8697 12.15ZM73.9147 10.83C74.4947 10.83 74.9497 10.615 75.2797 10.185C75.6197 9.755 75.7897 9.215 75.7897 8.565C75.7897 7.915 75.6097 7.37 75.2497 6.93C74.8897 6.48 74.4147 6.255 73.8247 6.255C73.2547 6.255 72.7947 6.475 72.4447 6.915C72.1047 7.355 71.9347 7.905 71.9347 8.565C71.9347 9.205 72.1197 9.745 72.4897 10.185C72.8597 10.615 73.3347 10.83 73.9147 10.83ZM79.2298 5.115H80.7898V6.39C81.3398 5.42 82.1998 4.935 83.3698 4.935C84.3398 4.935 85.1248 5.245 85.7248 5.865C86.3248 6.475 86.6248 7.36 86.6248 8.52C86.6248 9.24 86.4748 9.875 86.1748 10.425C85.8848 10.975 85.4848 11.4 84.9748 11.7C84.4748 12 83.9148 12.15 83.2948 12.15C82.7148 12.15 82.2098 12.05 81.7798 11.85C81.3598 11.64 81.0298 11.345 80.7898 10.965L80.8048 15.645H79.2298V5.115ZM82.9198 10.785C83.5698 10.785 84.0698 10.58 84.4198 10.17C84.7698 9.75 84.9448 9.215 84.9448 8.565C84.9448 7.885 84.7698 7.345 84.4198 6.945C84.0798 6.535 83.5798 6.33 82.9198 6.33C82.5598 6.33 82.2198 6.42 81.8998 6.6C81.5898 6.77 81.3398 7.02 81.1498 7.35C80.9698 7.67 80.8798 8.045 80.8798 8.475V8.58C80.8798 9.01 80.9698 9.395 81.1498 9.735C81.3398 10.065 81.5898 10.325 81.8998 10.515C82.2098 10.695 82.5498 10.785 82.9198 10.785ZM90.725 12.15C90.245 12.15 89.745 12.09 89.225 11.97C88.715 11.84 88.35 11.69 88.13 11.52L88.67 10.245C89.27 10.665 89.955 10.875 90.725 10.875C91.495 10.875 91.88 10.65 91.88 10.2C91.88 10 91.8 9.845 91.64 9.735C91.48 9.625 91.195 9.495 90.785 9.345L90.215 9.135C89.615 8.895 89.14 8.61 88.79 8.28C88.44 7.94 88.265 7.495 88.265 6.945C88.265 6.315 88.51 5.825 89 5.475C89.5 5.115 90.165 4.935 90.995 4.935C91.405 4.935 91.805 4.98 92.195 5.07C92.595 5.16 92.9 5.275 93.11 5.415L92.525 6.705C92.395 6.575 92.185 6.465 91.895 6.375C91.615 6.275 91.3 6.225 90.95 6.225C90.24 6.225 89.885 6.44 89.885 6.87C89.885 7.11 89.98 7.295 90.17 7.425C90.36 7.545 90.67 7.68 91.1 7.83C91.14 7.84 91.295 7.895 91.565 7.995C92.205 8.245 92.68 8.53 92.99 8.85C93.3 9.17 93.455 9.58 93.455 10.08C93.455 10.76 93.195 11.275 92.675 11.625C92.165 11.975 91.515 12.15 90.725 12.15ZM95.7373 6.435H94.5223V5.115H95.7373V2.31L97.3723 1.95V5.115H98.9623V6.435H97.3723V12H95.7373V6.435ZM102.664 12.15C101.714 12.15 101.059 11.87 100.699 11.31C100.349 10.75 100.174 9.97 100.174 8.97V5.115H101.794V8.565C101.794 9.135 101.824 9.58 101.884 9.9C101.954 10.21 102.084 10.44 102.274 10.59C102.474 10.74 102.769 10.815 103.159 10.815C103.439 10.815 103.709 10.735 103.969 10.575C104.229 10.415 104.439 10.2 104.599 9.93C104.769 9.65 104.854 9.345 104.854 9.015V5.115H106.459V12H105.139L104.959 10.995C104.709 11.385 104.394 11.675 104.014 11.865C103.644 12.055 103.194 12.15 102.664 12.15ZM111.659 12.15C111.039 12.15 110.464 12.005 109.934 11.715C109.414 11.415 108.994 10.995 108.674 10.455C108.364 9.905 108.209 9.265 108.209 8.535C108.209 7.445 108.514 6.575 109.124 5.925C109.734 5.265 110.559 4.935 111.599 4.935C112.179 4.935 112.709 5.08 113.189 5.37C113.669 5.65 113.994 5.99 114.164 6.39L114.089 5.22V0.975H115.679V12H114.134L114.104 10.785C113.934 11.145 113.624 11.465 113.174 11.745C112.724 12.015 112.219 12.15 111.659 12.15ZM111.929 10.785C112.499 10.785 112.979 10.59 113.369 10.2C113.759 9.8 113.954 9.28 113.954 8.64V8.535C113.954 8.105 113.864 7.72 113.684 7.38C113.504 7.04 113.259 6.775 112.949 6.585C112.639 6.395 112.299 6.3 111.929 6.3C111.289 6.3 110.794 6.51 110.444 6.93C110.094 7.34 109.919 7.875 109.919 8.535C109.919 9.205 110.089 9.75 110.429 10.17C110.779 10.58 111.279 10.785 111.929 10.785ZM117.948 5.115H119.628V12H117.948V5.115ZM118.773 3.825C118.463 3.825 118.203 3.72 117.993 3.51C117.783 3.3 117.678 3.04 117.678 2.73C117.678 2.45 117.783 2.21 117.993 2.01C118.203 1.81 118.463 1.71 118.773 1.71C119.073 1.71 119.328 1.81 119.538 2.01C119.748 2.21 119.853 2.45 119.853 2.73C119.853 3.04 119.748 3.3 119.538 3.51C119.338 3.72 119.083 3.825 118.773 3.825ZM125.081 12.15C124.371 12.15 123.741 11.99 123.191 11.67C122.641 11.35 122.216 10.915 121.916 10.365C121.616 9.815 121.466 9.205 121.466 8.535C121.466 7.875 121.611 7.27 121.901 6.72C122.201 6.17 122.626 5.735 123.176 5.415C123.726 5.095 124.361 4.935 125.081 4.935C125.801 4.935 126.431 5.095 126.971 5.415C127.521 5.735 127.941 6.17 128.231 6.72C128.531 7.27 128.681 7.875 128.681 8.535C128.681 9.205 128.531 9.815 128.231 10.365C127.931 10.915 127.506 11.35 126.956 11.67C126.416 11.99 125.791 12.15 125.081 12.15ZM125.126 10.83C125.706 10.83 126.161 10.615 126.491 10.185C126.831 9.755 127.001 9.215 127.001 8.565C127.001 7.915 126.821 7.37 126.461 6.93C126.101 6.48 125.626 6.255 125.036 6.255C124.466 6.255 124.006 6.475 123.656 6.915C123.316 7.355 123.146 7.905 123.146 8.565C123.146 9.205 123.331 9.745 123.701 10.185C124.071 10.615 124.546 10.83 125.126 10.83ZM132.781 12.15C132.301 12.15 131.801 12.09 131.281 11.97C130.771 11.84 130.406 11.69 130.186 11.52L130.726 10.245C131.326 10.665 132.011 10.875 132.781 10.875C133.551 10.875 133.936 10.65 133.936 10.2C133.936 10 133.856 9.845 133.696 9.735C133.536 9.625 133.251 9.495 132.841 9.345L132.271 9.135C131.671 8.895 131.196 8.61 130.846 8.28C130.496 7.94 130.321 7.495 130.321 6.945C130.321 6.315 130.566 5.825 131.056 5.475C131.556 5.115 132.221 4.935 133.051 4.935C133.461 4.935 133.861 4.98 134.251 5.07C134.651 5.16 134.956 5.275 135.166 5.415L134.581 6.705C134.451 6.575 134.241 6.465 133.951 6.375C133.671 6.275 133.356 6.225 133.006 6.225C132.296 6.225 131.941 6.44 131.941 6.87C131.941 7.11 132.036 7.295 132.226 7.425C132.416 7.545 132.726 7.68 133.156 7.83C133.196 7.84 133.351 7.895 133.621 7.995C134.261 8.245 134.736 8.53 135.046 8.85C135.356 9.17 135.511 9.58 135.511 10.08C135.511 10.76 135.251 11.275 134.731 11.625C134.221 11.975 133.571 12.15 132.781 12.15ZM138.303 12.15C138.003 12.15 137.748 12.05 137.538 11.85C137.328 11.64 137.223 11.385 137.223 11.085C137.223 10.775 137.323 10.52 137.523 10.32C137.733 10.11 137.993 10.005 138.303 10.005C138.613 10.005 138.868 10.11 139.068 10.32C139.278 10.52 139.383 10.775 139.383 11.085C139.383 11.385 139.278 11.64 139.068 11.85C138.868 12.05 138.613 12.15 138.303 12.15ZM149.375 0.959999L154.685 12H152.75L151.805 9.84H146.75L145.805 12H143.93L149.21 0.959999H149.375ZM148.625 5.655L147.425 8.325H151.145L149.96 5.67L149.315 4.155H149.285L148.625 5.655ZM155.638 0.975H157.243V12H155.638V0.975ZM159.652 0.975H161.257V12H159.652V0.975ZM167.163 5.115H168.783V6.465C168.943 6.005 169.203 5.635 169.563 5.355C169.923 5.075 170.333 4.935 170.793 4.935C171.113 4.935 171.333 4.965 171.453 5.025L171.228 6.66C171.138 6.6 170.943 6.57 170.643 6.57C170.173 6.57 169.743 6.72 169.353 7.02C168.973 7.32 168.783 7.8 168.783 8.46V12H167.163V5.115ZM172.718 5.115H174.398V12H172.718V5.115ZM173.543 3.825C173.233 3.825 172.973 3.72 172.763 3.51C172.553 3.3 172.448 3.04 172.448 2.73C172.448 2.45 172.553 2.21 172.763 2.01C172.973 1.81 173.233 1.71 173.543 1.71C173.843 1.71 174.098 1.81 174.308 2.01C174.518 2.21 174.623 2.45 174.623 2.73C174.623 3.04 174.518 3.3 174.308 3.51C174.108 3.72 173.853 3.825 173.543 3.825ZM179.986 15.6C179.476 15.6 178.971 15.53 178.471 15.39C177.981 15.25 177.631 15.12 177.421 15L177.781 13.5C178.441 13.93 179.161 14.145 179.941 14.145C180.541 14.145 181.046 14 181.456 13.71C181.866 13.42 182.076 12.855 182.086 12.015V10.785C181.876 11.175 181.536 11.5 181.066 11.76C180.596 12.02 180.076 12.15 179.506 12.15C178.906 12.15 178.356 12.005 177.856 11.715C177.356 11.415 176.961 10.99 176.671 10.44C176.381 9.89 176.236 9.25 176.236 8.52C176.236 7.82 176.371 7.2 176.641 6.66C176.921 6.11 177.316 5.685 177.826 5.385C178.336 5.085 178.931 4.935 179.611 4.935C180.011 4.935 180.386 5.005 180.736 5.145C181.086 5.285 181.381 5.46 181.621 5.67C181.871 5.87 182.036 6.07 182.116 6.27L182.146 5.115H183.676V11.955C183.676 13.125 183.376 14.025 182.776 14.655C182.176 15.285 181.246 15.6 179.986 15.6ZM179.956 10.785C180.526 10.785 181.006 10.59 181.396 10.2C181.786 9.8 181.981 9.28 181.981 8.64V8.535C181.981 8.105 181.891 7.72 181.711 7.38C181.531 7.04 181.286 6.775 180.976 6.585C180.666 6.395 180.326 6.3 179.956 6.3C179.316 6.3 178.821 6.51 178.471 6.93C178.121 7.34 177.946 7.875 177.946 8.535C177.946 9.205 178.116 9.75 178.456 10.17C178.806 10.58 179.306 10.785 179.956 10.785ZM185.828 0.975H187.403V5.115L187.343 6.39C187.533 5.97 187.838 5.625 188.258 5.355C188.678 5.075 189.168 4.935 189.728 4.935C190.438 4.935 190.983 5.085 191.363 5.385C191.743 5.675 191.998 6.085 192.128 6.615C192.258 7.145 192.323 7.835 192.323 8.685V12H190.718V8.67C190.718 8.09 190.683 7.635 190.613 7.305C190.553 6.975 190.423 6.725 190.223 6.555C190.033 6.385 189.753 6.3 189.383 6.3C189.083 6.3 188.778 6.39 188.468 6.57C188.168 6.75 187.918 7.015 187.718 7.365C187.518 7.705 187.418 8.11 187.418 8.58V12H185.828V0.975ZM194.98 6.435H193.765V5.115H194.98V2.31L196.615 1.95V5.115H198.205V6.435H196.615V12H194.98V6.435ZM201.892 12.15C201.412 12.15 200.912 12.09 200.392 11.97C199.882 11.84 199.517 11.69 199.297 11.52L199.837 10.245C200.437 10.665 201.122 10.875 201.892 10.875C202.662 10.875 203.047 10.65 203.047 10.2C203.047 10 202.967 9.845 202.807 9.735C202.647 9.625 202.362 9.495 201.952 9.345L201.382 9.135C200.782 8.895 200.307 8.61 199.957 8.28C199.607 7.94 199.432 7.495 199.432 6.945C199.432 6.315 199.677 5.825 200.167 5.475C200.667 5.115 201.332 4.935 202.162 4.935C202.572 4.935 202.972 4.98 203.362 5.07C203.762 5.16 204.067 5.275 204.277 5.415L203.692 6.705C203.562 6.575 203.352 6.465 203.062 6.375C202.782 6.275 202.467 6.225 202.117 6.225C201.407 6.225 201.052 6.44 201.052 6.87C201.052 7.11 201.147 7.295 201.337 7.425C201.527 7.545 201.837 7.68 202.267 7.83C202.307 7.84 202.462 7.895 202.732 7.995C203.372 8.245 203.847 8.53 204.157 8.85C204.467 9.17 204.622 9.58 204.622 10.08C204.622 10.76 204.362 11.275 203.842 11.625C203.332 11.975 202.682 12.15 201.892 12.15ZM209.936 5.115H211.556V6.465C211.716 6.005 211.976 5.635 212.336 5.355C212.696 5.075 213.106 4.935 213.566 4.935C213.886 4.935 214.106 4.965 214.226 5.025L214.001 6.66C213.911 6.6 213.716 6.57 213.416 6.57C212.946 6.57 212.516 6.72 212.126 7.02C211.746 7.32 211.556 7.8 211.556 8.46V12H209.936V5.115ZM218.627 12.15C217.807 12.15 217.122 11.99 216.572 11.67C216.022 11.34 215.617 10.905 215.357 10.365C215.097 9.815 214.967 9.215 214.967 8.565C214.967 7.835 215.117 7.195 215.417 6.645C215.727 6.095 216.152 5.675 216.692 5.385C217.232 5.085 217.842 4.935 218.522 4.935C219.582 4.935 220.367 5.23 220.877 5.82C221.397 6.4 221.657 7.22 221.657 8.28C221.657 8.55 221.642 8.83 221.612 9.12H216.662C216.772 9.73 216.987 10.17 217.307 10.44C217.637 10.71 218.092 10.845 218.672 10.845C219.152 10.845 219.547 10.805 219.857 10.725C220.167 10.645 220.452 10.535 220.712 10.395L221.207 11.55C220.957 11.71 220.617 11.85 220.187 11.97C219.757 12.09 219.237 12.15 218.627 12.15ZM220.082 7.995C220.092 7.375 219.957 6.94 219.677 6.69C219.397 6.43 218.997 6.3 218.477 6.3C217.427 6.3 216.822 6.865 216.662 7.995H220.082ZM225.725 12.15C225.245 12.15 224.745 12.09 224.225 11.97C223.715 11.84 223.35 11.69 223.13 11.52L223.67 10.245C224.27 10.665 224.955 10.875 225.725 10.875C226.495 10.875 226.88 10.65 226.88 10.2C226.88 10 226.8 9.845 226.64 9.735C226.48 9.625 226.195 9.495 225.785 9.345L225.215 9.135C224.615 8.895 224.14 8.61 223.79 8.28C223.44 7.94 223.265 7.495 223.265 6.945C223.265 6.315 223.51 5.825 224 5.475C224.5 5.115 225.165 4.935 225.995 4.935C226.405 4.935 226.805 4.98 227.195 5.07C227.595 5.16 227.9 5.275 228.11 5.415L227.525 6.705C227.395 6.575 227.185 6.465 226.895 6.375C226.615 6.275 226.3 6.225 225.95 6.225C225.24 6.225 224.885 6.44 224.885 6.87C224.885 7.11 224.98 7.295 225.17 7.425C225.36 7.545 225.67 7.68 226.1 7.83C226.14 7.84 226.295 7.895 226.565 7.995C227.205 8.245 227.68 8.53 227.99 8.85C228.3 9.17 228.455 9.58 228.455 10.08C228.455 10.76 228.195 11.275 227.675 11.625C227.165 11.975 226.515 12.15 225.725 12.15ZM233.392 12.15C232.572 12.15 231.887 11.99 231.337 11.67C230.787 11.34 230.382 10.905 230.122 10.365C229.862 9.815 229.732 9.215 229.732 8.565C229.732 7.835 229.882 7.195 230.182 6.645C230.492 6.095 230.917 5.675 231.457 5.385C231.997 5.085 232.607 4.935 233.287 4.935C234.347 4.935 235.132 5.23 235.642 5.82C236.162 6.4 236.422 7.22 236.422 8.28C236.422 8.55 236.407 8.83 236.377 9.12H231.427C231.537 9.73 231.752 10.17 232.072 10.44C232.402 10.71 232.857 10.845 233.437 10.845C233.917 10.845 234.312 10.805 234.622 10.725C234.932 10.645 235.217 10.535 235.477 10.395L235.972 11.55C235.722 11.71 235.382 11.85 234.952 11.97C234.522 12.09 234.002 12.15 233.392 12.15ZM234.847 7.995C234.857 7.375 234.722 6.94 234.442 6.69C234.162 6.43 233.762 6.3 233.242 6.3C232.192 6.3 231.587 6.865 231.427 7.995H234.847ZM238.076 5.115H239.696V6.465C239.856 6.005 240.116 5.635 240.476 5.355C240.836 5.075 241.246 4.935 241.706 4.935C242.026 4.935 242.246 4.965 242.366 5.025L242.141 6.66C242.051 6.6 241.856 6.57 241.556 6.57C241.086 6.57 240.656 6.72 240.266 7.02C239.886 7.32 239.696 7.8 239.696 8.46V12H238.076V5.115ZM242.416 5.115H244.261L245.746 8.22L246.226 9.465L246.706 8.22L248.176 5.115H249.976L246.361 12H246.046L242.416 5.115ZM254.091 12.15C253.271 12.15 252.586 11.99 252.036 11.67C251.486 11.34 251.081 10.905 250.821 10.365C250.561 9.815 250.431 9.215 250.431 8.565C250.431 7.835 250.581 7.195 250.881 6.645C251.191 6.095 251.616 5.675 252.156 5.385C252.696 5.085 253.306 4.935 253.986 4.935C255.046 4.935 255.831 5.23 256.341 5.82C256.861 6.4 257.121 7.22 257.121 8.28C257.121 8.55 257.106 8.83 257.076 9.12H252.126C252.236 9.73 252.451 10.17 252.771 10.44C253.101 10.71 253.556 10.845 254.136 10.845C254.616 10.845 255.011 10.805 255.321 10.725C255.631 10.645 255.916 10.535 256.176 10.395L256.671 11.55C256.421 11.71 256.081 11.85 255.651 11.97C255.221 12.09 254.701 12.15 254.091 12.15ZM255.546 7.995C255.556 7.375 255.421 6.94 255.141 6.69C254.861 6.43 254.461 6.3 253.941 6.3C252.891 6.3 252.286 6.865 252.126 7.995H255.546ZM261.864 12.15C261.244 12.15 260.669 12.005 260.139 11.715C259.619 11.415 259.199 10.995 258.879 10.455C258.569 9.905 258.414 9.265 258.414 8.535C258.414 7.445 258.719 6.575 259.329 5.925C259.939 5.265 260.764 4.935 261.804 4.935C262.384 4.935 262.914 5.08 263.394 5.37C263.874 5.65 264.199 5.99 264.369 6.39L264.294 5.22V0.975H265.884V12H264.339L264.309 10.785C264.139 11.145 263.829 11.465 263.379 11.745C262.929 12.015 262.424 12.15 261.864 12.15ZM262.134 10.785C262.704 10.785 263.184 10.59 263.574 10.2C263.964 9.8 264.159 9.28 264.159 8.64V8.535C264.159 8.105 264.069 7.72 263.889 7.38C263.709 7.04 263.464 6.775 263.154 6.585C262.844 6.395 262.504 6.3 262.134 6.3C261.494 6.3 260.999 6.51 260.649 6.93C260.299 7.34 260.124 7.875 260.124 8.535C260.124 9.205 260.294 9.75 260.634 10.17C260.984 10.58 261.484 10.785 262.134 10.785ZM269.143 12.15C268.843 12.15 268.588 12.05 268.378 11.85C268.168 11.64 268.063 11.385 268.063 11.085C268.063 10.775 268.163 10.52 268.363 10.32C268.573 10.11 268.833 10.005 269.143 10.005C269.453 10.005 269.708 10.11 269.908 10.32C270.118 10.52 270.223 10.775 270.223 11.085C270.223 11.385 270.118 11.64 269.908 11.85C269.708 12.05 269.453 12.15 269.143 12.15Z" fill="white"/>
</svg>
